<svg width="85" height="44" viewBox="0 0 85 44" fill="none" xmlns="http://www.w3.org/2000/svg">
<path d="M6.18 4.36C7.24 4.36 8.26 4.64 9.18 5.18C9.52 5.38 10.34 5.98 10.34 6.42C10.34 6.82 9.94 7.06 9.58 7.06C9.14 7.06 8.92 6.68 8.62 6.44C7.94 5.88 6.98 5.6 6.1 5.6C5.58 5.6 4.94 5.7 4.44 5.9C3.42 6.3 2.52 7.32 2.52 8.46C2.52 9.98 4.68 10.14 5.78 10.18C6.52 10.22 7.26 10.18 7.98 10.28C10.42 10.58 11.82 11.84 11.82 14.38C11.82 17.52 9.52 18.78 6.66 18.78C4.54 18.78 2.54 17.9 1.36 16.1C1.2 15.84 0.82 15.12 0.82 14.84C0.82 14.44 1.22 14.2 1.58 14.2C1.8 14.2 2 14.28 2.14 14.44C2.28 14.6 2.34 14.86 2.42 15.06C3.16 16.7 5 17.54 6.74 17.54C8.78 17.54 10.38 16.8 10.38 14.52C10.38 12.66 9.6 11.72 7.72 11.5C7.04 11.42 6.34 11.46 5.64 11.42C3.78 11.34 1.08 10.88 1.08 8.5C1.08 7.84 1.3 7.22 1.62 6.66C2.52 5.08 4.42 4.36 6.18 4.36ZM13.6567 16.64C13.6567 15.78 13.6967 14.9 13.7167 14.04C13.7567 12.18 13.7767 10.32 13.7767 8.46C13.7767 7.34 13.7567 6.24 13.6967 5.14V5.08C13.6967 4.68 14.0967 4.44 14.4567 4.44C14.7967 4.44 15.0967 4.64 15.1367 4.98C15.1767 5.28 15.1767 5.62 15.1967 5.92C15.2367 6.78 15.2367 7.64 15.2367 8.5C15.2367 10.32 15.2167 12.16 15.1767 14C15.1567 14.98 15.1167 15.96 15.1167 16.94C15.1167 17.08 15.1167 17.22 15.1367 17.36C15.3567 17.36 15.5567 17.32 15.7767 17.3C16.3367 17.26 16.9167 17.26 17.4767 17.26C18.8367 17.26 20.1967 17.3 21.5567 17.26C21.9567 17.24 22.3367 17.22 22.7367 17.18C22.8967 17.16 23.0767 17.14 23.2367 17.14C23.5767 17.14 23.9167 17.38 23.9167 17.74C23.9167 18.34 23.2367 18.4 22.7767 18.42C21.8367 18.5 20.8967 18.52 19.9567 18.52C18.7367 18.52 17.5167 18.5 16.3167 18.54C15.8767 18.54 15.4567 18.6 15.0367 18.6C13.7367 18.6 13.6567 17.68 13.6567 16.64ZM24.9406 12.36C24.9406 8.9 27.5806 4.4 31.4206 4.4C35.0806 4.4 36.8006 7.08 36.8006 10.5C36.8006 13.58 35.4406 16.82 32.5206 18.18C31.6806 18.56 30.7806 18.78 29.8606 18.78C28.7606 18.78 27.6206 18.42 26.8006 17.64C25.3206 16.26 24.9406 14.3 24.9406 12.36ZM31.3606 5.64C29.2206 5.64 27.5806 7.88 26.9006 9.7C26.5806 10.52 26.4006 11.42 26.4006 12.32C26.4006 14.58 27.1406 17.54 29.9206 17.54C30.7006 17.54 31.4606 17.32 32.1206 16.96C34.3806 15.74 35.3406 12.98 35.3406 10.54C35.3406 7.96 34.2606 5.64 31.3606 5.64ZM47.5977 8.3C47.5977 7.58 47.5977 6.84 47.5377 6.12C47.5177 5.82 47.4577 5.52 47.4577 5.22C47.4577 4.82 47.8577 4.58 48.2177 4.58C48.8177 4.58 48.8777 4.98 48.9377 5.46C49.0577 6.38 49.0577 7.32 49.0577 8.24C49.0577 9.7 49.0177 11.16 49.0177 12.62C49.0177 13.92 49.0177 15.22 48.8977 16.5C48.8777 16.6 48.8577 16.7 48.8577 16.82C48.8577 17.62 48.8977 18.74 47.7777 18.74C47.4777 18.74 47.1977 18.58 46.9977 18.38C46.4977 17.9 45.6177 16.52 45.2577 15.98C43.3977 13.3 41.8177 10.44 40.2577 7.6C40.1377 8.98 40.1777 17.98 40.0377 18.3C39.8977 18.6 39.6177 18.76 39.2977 18.76C38.9577 18.76 38.6177 18.52 38.6177 18.16C38.6177 16.62 38.6777 15.06 38.6977 13.52C38.7177 11.78 38.6977 10.04 38.7377 8.3C38.7577 7.8 38.8177 7.3 38.8577 6.82C38.8977 6.26 38.8977 5.66 38.9977 5.12C39.0977 4.68 39.3777 4.4 39.8377 4.4C40.3177 4.4 40.4777 4.72 40.6377 5.12C41.1777 6.46 41.9377 7.68 42.6377 8.94C43.4177 10.3 44.1777 11.7 45.0177 13.04C45.7777 14.26 46.5977 15.44 47.4377 16.64C47.5177 15.72 47.5777 14.82 47.5777 13.9C47.5777 13.44 47.5777 12.96 47.5777 12.5L47.5977 9.7C47.5977 9.22 47.5977 8.76 47.5977 8.3Z" fill="#FD8B51"/>
<path d="M2.04 39.2C2.04 38.92 2.06 38.64 2.06 38.36C2.06 37.3 1.98 36.24 1.9 35.18C1.74 32.78 1.58 30.34 1.3 27.94C1.28 27.7 1.24 27.46 1.2 27.22C0.9 27.18 0.62 26.96 0.62 26.62C0.62 26.36 0.8 26.18 1.02 26.06C1.42 25.84 5.6 25.52 6.32 25.52C7.18 25.52 8.02 25.62 8.84 25.9C10.56 26.5 11.58 27.46 11.58 29.38C11.58 30.4 11.04 31.38 10.28 32.04C9.24 32.94 7 33.86 5.66 34.2C5.16 34.32 4.62 34.38 4.12 34.48C3.86 34.52 3.6 34.58 3.32 34.62C3.42 36 3.5 37.36 3.5 38.74C3.5 39.32 3.42 39.8 2.72 39.8C2.38 39.8 2.04 39.56 2.04 39.2ZM6.24 26.76C5.06 26.76 3.88 26.9 2.7 27.06C2.7 27.24 2.72 27.42 2.74 27.58C2.94 29.5 3.1 31.42 3.24 33.34C3.9 33.24 4.76 33.12 5.1 33.06C6.22 32.82 8.6 31.86 9.4 31.06C9.82 30.62 10.12 30.04 10.12 29.42C10.12 28.04 9.4 27.42 8.16 27.04C7.54 26.86 6.9 26.76 6.24 26.76ZM13.227 37.64C13.227 36.78 13.267 35.9 13.287 35.04C13.327 33.18 13.347 31.32 13.347 29.46C13.347 28.34 13.327 27.24 13.267 26.14V26.08C13.267 25.68 13.667 25.44 14.027 25.44C14.367 25.44 14.667 25.64 14.707 25.98C14.747 26.28 14.747 26.62 14.767 26.92C14.807 27.78 14.807 28.64 14.807 29.5C14.807 31.32 14.787 33.16 14.747 35C14.727 35.98 14.687 36.96 14.687 37.94C14.687 38.08 14.687 38.22 14.707 38.36C14.927 38.36 15.127 38.32 15.347 38.3C15.907 38.26 16.487 38.26 17.047 38.26C18.407 38.26 19.767 38.3 21.127 38.26C21.527 38.24 21.907 38.22 22.307 38.18C22.467 38.16 22.647 38.14 22.807 38.14C23.147 38.14 23.487 38.38 23.487 38.74C23.487 39.34 22.807 39.4 22.347 39.42C21.407 39.5 20.467 39.52 19.527 39.52C18.307 39.52 17.087 39.5 15.887 39.54C15.447 39.54 15.027 39.6 14.607 39.6C13.307 39.6 13.227 38.68 13.227 37.64ZM27.0509 34.88C26.8709 35.36 26.6909 35.84 26.5109 36.32C26.3309 36.8 25.4309 39.32 25.2709 39.52C25.0909 39.74 24.8909 39.84 24.6109 39.84C24.2709 39.84 23.9309 39.6 23.9309 39.24C23.9309 38.96 28.1909 27.88 28.7109 26.68C28.9909 26.06 29.3509 25.26 30.1709 25.26C30.9309 25.26 31.2909 26.04 31.5309 26.64C31.9509 27.74 32.2509 28.86 32.6109 29.96C33.4109 32.48 34.2309 34.98 35.1109 37.48C35.2509 37.88 35.3909 38.3 35.6509 38.66C35.7709 38.84 35.9109 38.96 35.9109 39.2C35.9109 39.6 35.5109 39.84 35.1509 39.84C34.6509 39.84 34.3709 39.36 34.1709 38.96C33.6509 38 33.3909 36.94 33.0509 35.92C32.8709 35.42 32.7109 34.92 32.5509 34.44C31.1509 34.6 28.0109 34.84 27.0509 34.88ZM30.1109 27C29.9509 27.3 29.8509 27.62 29.7309 27.94C28.9909 29.82 28.2709 31.7 27.5309 33.58C28.0709 33.56 28.6709 33.54 28.9109 33.52C29.9909 33.44 31.0709 33.34 32.1309 33.2C31.5909 31.58 31.0709 29.98 30.5709 28.34C30.4309 27.9 30.2909 27.44 30.1109 27ZM46.1133 29.3C46.1133 28.58 46.1133 27.84 46.0533 27.12C46.0333 26.82 45.9733 26.52 45.9733 26.22C45.9733 25.82 46.3733 25.58 46.7333 25.58C47.3333 25.58 47.3933 25.98 47.4533 26.46C47.5733 27.38 47.5733 28.32 47.5733 29.24C47.5733 30.7 47.5333 32.16 47.5333 33.62C47.5333 34.92 47.5333 36.22 47.4133 37.5C47.3933 37.6 47.3733 37.7 47.3733 37.82C47.3733 38.62 47.4133 39.74 46.2933 39.74C45.9933 39.74 45.7133 39.58 45.5133 39.38C45.0133 38.9 44.1333 37.52 43.7733 36.98C41.9133 34.3 40.3333 31.44 38.7733 28.6C38.6533 29.98 38.6933 38.98 38.5533 39.3C38.4133 39.6 38.1333 39.76 37.8133 39.76C37.4733 39.76 37.1333 39.52 37.1333 39.16C37.1333 37.62 37.1933 36.06 37.2133 34.52C37.2333 32.78 37.2133 31.04 37.2533 29.3C37.2733 28.8 37.3333 28.3 37.3733 27.82C37.4133 27.26 37.4133 26.66 37.5133 26.12C37.6133 25.68 37.8933 25.4 38.3533 25.4C38.8333 25.4 38.9933 25.72 39.1533 26.12C39.6933 27.46 40.4533 28.68 41.1533 29.94C41.9333 31.3 42.6933 32.7 43.5333 34.04C44.2933 35.26 45.1133 36.44 45.9533 37.64C46.0333 36.72 46.0933 35.82 46.0933 34.9C46.0933 34.44 46.0933 33.96 46.0933 33.5L46.1133 30.7C46.1133 30.22 46.1133 29.76 46.1133 29.3ZM58.5742 29.3C58.5742 28.58 58.5742 27.84 58.5142 27.12C58.4942 26.82 58.4342 26.52 58.4342 26.22C58.4342 25.82 58.8342 25.58 59.1942 25.58C59.7942 25.58 59.8542 25.98 59.9142 26.46C60.0342 27.38 60.0342 28.32 60.0342 29.24C60.0342 30.7 59.9942 32.16 59.9942 33.62C59.9942 34.92 59.9942 36.22 59.8742 37.5C59.8542 37.6 59.8342 37.7 59.8342 37.82C59.8342 38.62 59.8742 39.74 58.7542 39.74C58.4542 39.74 58.1742 39.58 57.9742 39.38C57.4742 38.9 56.5942 37.52 56.2342 36.98C54.3742 34.3 52.7942 31.44 51.2342 28.6C51.1142 29.98 51.1542 38.98 51.0142 39.3C50.8742 39.6 50.5942 39.76 50.2742 39.76C49.9342 39.76 49.5942 39.52 49.5942 39.16C49.5942 37.62 49.6542 36.06 49.6742 34.52C49.6942 32.78 49.6742 31.04 49.7142 29.3C49.7342 28.8 49.7942 28.3 49.8342 27.82C49.8742 27.26 49.8742 26.66 49.9742 26.12C50.0742 25.68 50.3542 25.4 50.8142 25.4C51.2942 25.4 51.4542 25.72 51.6142 26.12C52.1542 27.46 52.9142 28.68 53.6142 29.94C54.3942 31.3 55.1542 32.7 55.9942 34.04C56.7542 35.26 57.5742 36.44 58.4142 37.64C58.4942 36.72 58.5542 35.82 58.5542 34.9C58.5542 34.44 58.5542 33.96 58.5542 33.5L58.5742 30.7C58.5742 30.22 58.5742 29.76 58.5742 29.3ZM71.8352 26.18C71.8352 26.46 71.6152 26.68 71.3552 26.78C71.1152 26.86 70.3352 26.84 70.0352 26.84L67.7552 26.88C66.3752 26.92 64.9952 26.96 63.6152 26.98C63.6552 27.8 63.6552 28.96 63.6552 29.26C63.6552 30.06 63.6552 30.86 63.6352 31.64C65.0352 31.56 68.6352 31.54 69.3552 31.52C69.6352 31.5 69.9352 31.5 70.2152 31.46C70.3952 31.44 70.5552 31.4 70.7352 31.4C71.0752 31.4 71.4152 31.64 71.4152 32C71.4152 32.28 71.2152 32.48 70.9752 32.58C70.4152 32.82 67.7152 32.8 66.9752 32.82C65.8552 32.84 64.7352 32.9 63.6152 32.9C63.6152 33.52 63.5952 34.16 63.5752 34.78C63.5552 35.58 63.5152 36.36 63.5152 37.16C63.5152 37.34 63.5152 37.98 63.6752 38.08C63.8352 38.2 64.9952 38.2 65.2552 38.2C66.2352 38.2 67.2152 38.18 68.1752 38.18C68.7752 38.18 69.3752 38.18 69.9552 38.1C70.4152 38.04 70.8752 37.9 71.3352 37.9C71.6752 37.9 72.0152 38.14 72.0152 38.5C72.0152 39.2 70.9552 39.22 70.4552 39.28C68.7552 39.5 66.9152 39.44 65.1752 39.44C63.3352 39.44 62.0552 39.48 62.0552 37.24C62.0552 36.44 62.0952 35.62 62.1152 34.82C62.1552 33.2 62.1952 31.56 62.1952 29.92C62.1952 29.08 62.1952 28.22 62.1752 27.38C62.1552 27.06 62.1152 26.76 62.1152 26.44C62.1152 26.3 62.1552 26.2 62.2352 26.1C62.3152 25.94 62.4752 25.84 62.6352 25.78C62.8752 25.7 63.6552 25.72 63.9552 25.72L66.2352 25.68C67.8752 25.64 69.5152 25.58 71.1552 25.58C71.4952 25.58 71.8352 25.82 71.8352 26.18ZM73.9614 32.82C73.9614 31.46 73.9414 30.1 73.8814 28.74C73.8414 28.32 73.8214 27.92 73.7814 27.52C73.7814 27.42 73.7614 27.3 73.7414 27.2C73.4414 27.16 73.1614 26.94 73.1614 26.6C73.1614 26.34 73.3414 26.16 73.5614 26.04C73.9614 25.82 77.7614 25.52 78.4214 25.52C80.8414 25.52 83.2614 26.44 83.2614 29.22C83.2614 31.1 81.8214 32.16 80.3014 32.9C82.1214 33.92 83.5414 36.38 84.3414 37.94C84.4614 38.18 84.7814 38.74 84.7814 39C84.7814 39.4 84.3814 39.64 84.0214 39.64C83.8014 39.64 83.6214 39.56 83.4814 39.42C83.3014 39.24 82.9614 38.38 82.8014 38.1C82.1214 36.84 80.2214 33.68 78.6214 33.68C78.4214 33.68 78.2414 33.78 78.0414 33.8C77.9814 33.82 77.9014 33.84 77.8414 33.86C77.3614 33.98 76.8814 34.04 76.4014 34.12C76.0614 34.18 75.7414 34.28 75.4014 34.3C75.3814 36.2 75.3014 39.16 75.1614 39.4C75.0214 39.66 74.7614 39.8 74.4614 39.8C74.1214 39.8 73.7814 39.56 73.7814 39.2C73.7814 38.92 73.8014 38.64 73.8214 38.38C73.9214 36.54 73.9614 34.64 73.9614 32.82ZM78.3414 26.76C77.3014 26.76 76.2614 26.88 75.2214 27.02C75.3814 28.44 75.4214 32.04 75.4214 32.78C75.4214 32.82 75.4214 32.9 75.4214 33.02C76.0214 32.9 76.9214 32.8 77.2814 32.72C78.2814 32.5 80.4614 31.58 81.1414 30.84C81.5414 30.42 81.8214 29.84 81.8214 29.26C81.8214 28.12 81.3614 27.5 80.3014 27.1C79.6414 26.84 79.0414 26.76 78.3414 26.76Z" fill="#257180"/>
</svg>
