<svg width="51" height="23" viewBox="0 0 51 23" fill="none" xmlns="http://www.w3.org/2000/svg">
<path d="M6.18 4.36C7.24 4.36 8.26 4.64 9.18 5.18C9.52 5.38 10.34 5.98 10.34 6.42C10.34 6.82 9.94 7.06 9.58 7.06C9.14 7.06 8.92 6.68 8.62 6.44C7.94 5.88 6.98 5.6 6.1 5.6C5.58 5.6 4.94 5.7 4.44 5.9C3.42 6.3 2.52 7.32 2.52 8.46C2.52 9.98 4.68 10.14 5.78 10.18C6.52 10.22 7.26 10.18 7.98 10.28C10.42 10.58 11.82 11.84 11.82 14.38C11.82 17.52 9.52 18.78 6.66 18.78C4.54 18.78 2.54 17.9 1.36 16.1C1.2 15.84 0.82 15.12 0.82 14.84C0.82 14.44 1.22 14.2 1.58 14.2C1.8 14.2 2 14.28 2.14 14.44C2.28 14.6 2.34 14.86 2.42 15.06C3.16 16.7 5 17.54 6.74 17.54C8.78 17.54 10.38 16.8 10.38 14.52C10.38 12.66 9.6 11.72 7.72 11.5C7.04 11.42 6.34 11.46 5.64 11.42C3.78 11.34 1.08 10.88 1.08 8.5C1.08 7.84 1.3 7.22 1.62 6.66C2.52 5.08 4.42 4.36 6.18 4.36ZM13.6567 16.64C13.6567 15.78 13.6967 14.9 13.7167 14.04C13.7567 12.18 13.7767 10.32 13.7767 8.46C13.7767 7.34 13.7567 6.24 13.6967 5.14V5.08C13.6967 4.68 14.0967 4.44 14.4567 4.44C14.7967 4.44 15.0967 4.64 15.1367 4.98C15.1767 5.28 15.1767 5.62 15.1967 5.92C15.2367 6.78 15.2367 7.64 15.2367 8.5C15.2367 10.32 15.2167 12.16 15.1767 14C15.1567 14.98 15.1167 15.96 15.1167 16.94C15.1167 17.08 15.1167 17.22 15.1367 17.36C15.3567 17.36 15.5567 17.32 15.7767 17.3C16.3367 17.26 16.9167 17.26 17.4767 17.26C18.8367 17.26 20.1967 17.3 21.5567 17.26C21.9567 17.24 22.3367 17.22 22.7367 17.18C22.8967 17.16 23.0767 17.14 23.2367 17.14C23.5767 17.14 23.9167 17.38 23.9167 17.74C23.9167 18.34 23.2367 18.4 22.7767 18.42C21.8367 18.5 20.8967 18.52 19.9567 18.52C18.7367 18.52 17.5167 18.5 16.3167 18.54C15.8767 18.54 15.4567 18.6 15.0367 18.6C13.7367 18.6 13.6567 17.68 13.6567 16.64ZM24.9406 12.36C24.9406 8.9 27.5806 4.4 31.4206 4.4C35.0806 4.4 36.8006 7.08 36.8006 10.5C36.8006 13.58 35.4406 16.82 32.5206 18.18C31.6806 18.56 30.7806 18.78 29.8606 18.78C28.7606 18.78 27.6206 18.42 26.8006 17.64C25.3206 16.26 24.9406 14.3 24.9406 12.36ZM31.3606 5.64C29.2206 5.64 27.5806 7.88 26.9006 9.7C26.5806 10.52 26.4006 11.42 26.4006 12.32C26.4006 14.58 27.1406 17.54 29.9206 17.54C30.7006 17.54 31.4606 17.32 32.1206 16.96C34.3806 15.74 35.3406 12.98 35.3406 10.54C35.3406 7.96 34.2606 5.64 31.3606 5.64ZM47.5977 8.3C47.5977 7.58 47.5977 6.84 47.5377 6.12C47.5177 5.82 47.4577 5.52 47.4577 5.22C47.4577 4.82 47.8577 4.58 48.2177 4.58C48.8177 4.58 48.8777 4.98 48.9377 5.46C49.0577 6.38 49.0577 7.32 49.0577 8.24C49.0577 9.7 49.0177 11.16 49.0177 12.62C49.0177 13.92 49.0177 15.22 48.8977 16.5C48.8777 16.6 48.8577 16.7 48.8577 16.82C48.8577 17.62 48.8977 18.74 47.7777 18.74C47.4777 18.74 47.1977 18.58 46.9977 18.38C46.4977 17.9 45.6177 16.52 45.2577 15.98C43.3977 13.3 41.8177 10.44 40.2577 7.6C40.1377 8.98 40.1777 17.98 40.0377 18.3C39.8977 18.6 39.6177 18.76 39.2977 18.76C38.9577 18.76 38.6177 18.52 38.6177 18.16C38.6177 16.62 38.6777 15.06 38.6977 13.52C38.7177 11.78 38.6977 10.04 38.7377 8.3C38.7577 7.8 38.8177 7.3 38.8577 6.82C38.8977 6.26 38.8977 5.66 38.9977 5.12C39.0977 4.68 39.3777 4.4 39.8377 4.4C40.3177 4.4 40.4777 4.72 40.6377 5.12C41.1777 6.46 41.9377 7.68 42.6377 8.94C43.4177 10.3 44.1777 11.7 45.0177 13.04C45.7777 14.26 46.5977 15.44 47.4377 16.64C47.5177 15.72 47.5777 14.82 47.5777 13.9C47.5777 13.44 47.5777 12.96 47.5777 12.5L47.5977 9.7C47.5977 9.22 47.5977 8.76 47.5977 8.3Z" fill="#FD8B51"/>
</svg>
