<svg width="79" height="59" viewBox="0 0 79 59" fill="none" xmlns="http://www.w3.org/2000/svg">
<rect x="1.5" y="1.5" width="76" height="56" rx="14.5" fill="#FFFDF7" stroke="#F2E5BF" stroke-width="3"/>
<mask id="path-2-outside-1_178_14318" maskUnits="userSpaceOnUse" x="7" y="10" width="32" height="42" fill="black">
<rect fill="white" x="7" y="10" width="32" height="42"/>
<path d="M22.686 11.172C25.548 11.172 28.302 11.928 30.786 13.386C31.704 13.926 33.918 15.546 33.918 16.734C33.918 17.814 32.838 18.462 31.866 18.462C30.678 18.462 30.084 17.436 29.274 16.788C27.438 15.276 24.846 14.52 22.47 14.52C21.066 14.52 19.338 14.79 17.988 15.33C15.234 16.41 12.804 19.164 12.804 22.242C12.804 26.346 18.636 26.778 21.606 26.886C23.604 26.994 25.602 26.886 27.546 27.156C34.134 27.966 37.914 31.368 37.914 38.226C37.914 46.704 31.704 50.106 23.982 50.106C18.258 50.106 12.858 47.73 9.672 42.87C9.24 42.168 8.214 40.224 8.214 39.468C8.214 38.388 9.294 37.74 10.266 37.74C10.86 37.74 11.4 37.956 11.778 38.388C12.156 38.82 12.318 39.522 12.534 40.062C14.532 44.49 19.5 46.758 24.198 46.758C29.706 46.758 34.026 44.76 34.026 38.604C34.026 33.582 31.92 31.044 26.844 30.45C25.008 30.234 23.118 30.342 21.228 30.234C16.206 30.018 8.916 28.776 8.916 22.35C8.916 20.568 9.51 18.894 10.374 17.382C12.804 13.116 17.934 11.172 22.686 11.172Z"/>
</mask>
<path d="M22.686 11.172C25.548 11.172 28.302 11.928 30.786 13.386C31.704 13.926 33.918 15.546 33.918 16.734C33.918 17.814 32.838 18.462 31.866 18.462C30.678 18.462 30.084 17.436 29.274 16.788C27.438 15.276 24.846 14.52 22.47 14.52C21.066 14.52 19.338 14.79 17.988 15.33C15.234 16.41 12.804 19.164 12.804 22.242C12.804 26.346 18.636 26.778 21.606 26.886C23.604 26.994 25.602 26.886 27.546 27.156C34.134 27.966 37.914 31.368 37.914 38.226C37.914 46.704 31.704 50.106 23.982 50.106C18.258 50.106 12.858 47.73 9.672 42.87C9.24 42.168 8.214 40.224 8.214 39.468C8.214 38.388 9.294 37.74 10.266 37.74C10.86 37.74 11.4 37.956 11.778 38.388C12.156 38.82 12.318 39.522 12.534 40.062C14.532 44.49 19.5 46.758 24.198 46.758C29.706 46.758 34.026 44.76 34.026 38.604C34.026 33.582 31.92 31.044 26.844 30.45C25.008 30.234 23.118 30.342 21.228 30.234C16.206 30.018 8.916 28.776 8.916 22.35C8.916 20.568 9.51 18.894 10.374 17.382C12.804 13.116 17.934 11.172 22.686 11.172Z" fill="#FD8B51"/>
<path d="M30.786 13.386L31.293 12.5241L31.2922 12.5236L30.786 13.386ZM29.274 16.788L28.6383 17.5599L28.6438 17.5644L28.6493 17.5689L29.274 16.788ZM17.988 15.33L18.3531 16.261L18.3594 16.2585L17.988 15.33ZM21.606 26.886L21.66 25.8875L21.6512 25.887L21.6423 25.8867L21.606 26.886ZM27.546 27.156L27.4084 28.1465L27.4162 28.1476L27.424 28.1485L27.546 27.156ZM9.672 42.87L8.82034 43.3941L8.82784 43.4063L8.83569 43.4183L9.672 42.87ZM11.778 38.388L12.5306 37.7295L12.5306 37.7295L11.778 38.388ZM12.534 40.062L11.6055 40.4334L11.6136 40.4535L11.6225 40.4733L12.534 40.062ZM26.844 30.45L26.7272 31.4431L26.7278 31.4432L26.844 30.45ZM21.228 30.234L21.2851 29.2355L21.271 29.2349L21.228 30.234ZM10.374 17.382L11.2422 17.8781L11.2429 17.877L10.374 17.382ZM22.686 12.172C25.3677 12.172 27.9472 12.8793 30.2798 14.2484L31.2922 12.5236C28.6568 10.9767 25.7283 10.172 22.686 10.172V12.172ZM30.279 14.2479C30.6857 14.4872 31.4083 14.9853 32.0155 15.5495C32.3191 15.8316 32.5659 16.1047 32.73 16.3467C32.8109 16.4661 32.8614 16.5629 32.89 16.6361C32.9188 16.7096 32.918 16.7396 32.918 16.734H34.918C34.918 16.1445 34.6532 15.6195 34.3855 15.2245C34.1057 14.8118 33.7417 14.4234 33.377 14.0845C32.6477 13.4067 31.8043 12.8248 31.293 12.5241L30.279 14.2479ZM32.918 16.734C32.918 16.9039 32.8439 17.0608 32.6521 17.2063C32.4446 17.3637 32.1468 17.462 31.866 17.462V19.462C32.5572 19.462 33.2854 19.2363 33.8609 18.7997C34.4521 18.3512 34.918 17.6441 34.918 16.734H32.918ZM31.866 17.462C31.6017 17.462 31.3789 17.3628 31.0748 17.1051C30.913 16.968 30.7574 16.8116 30.5592 16.6142C30.3734 16.4293 30.149 16.2074 29.8987 16.0071L28.6493 17.5689C28.804 17.6926 28.9576 17.842 29.1481 18.0316C29.3262 18.2089 29.5452 18.4305 29.7817 18.6309C30.2741 19.0482 30.9423 19.462 31.866 19.462V17.462ZM29.9097 16.0161C27.8602 14.3282 25.0289 13.52 22.47 13.52V15.52C24.6631 15.52 27.0158 16.2238 28.6383 17.5599L29.9097 16.0161ZM22.47 13.52C20.9645 13.52 19.1064 13.8056 17.6166 14.4015L18.3594 16.2585C19.5696 15.7744 21.1675 15.52 22.47 15.52V13.52ZM17.6229 14.399C14.5942 15.5868 11.804 18.6475 11.804 22.242H13.804C13.804 19.6805 15.8738 17.2332 18.3531 16.261L17.6229 14.399ZM11.804 22.242C11.804 23.5339 12.2737 24.576 13.0395 25.3755C13.7821 26.1508 14.7653 26.661 15.7635 27.0073C17.7489 27.6959 20.0852 27.8314 21.5697 27.8853L21.6423 25.8867C20.1568 25.8326 18.0921 25.6981 16.419 25.1177C15.588 24.8295 14.9276 24.4554 14.4838 23.9921C14.0633 23.553 13.804 23.0021 13.804 22.242H11.804ZM21.552 27.8845C22.5733 27.9397 23.6109 27.9403 24.5758 27.96C25.5588 27.9801 26.4966 28.0198 27.4084 28.1465L27.6836 26.1655C26.6514 26.0222 25.6182 25.9809 24.6167 25.9605C23.5971 25.9396 22.6367 25.9403 21.66 25.8875L21.552 27.8845ZM27.424 28.1485C30.5849 28.5372 32.9302 29.5312 34.4854 31.1221C36.026 32.6979 36.914 34.9854 36.914 38.226H38.914C38.914 34.6086 37.912 31.7661 35.9156 29.7239C33.9338 27.6968 31.0951 26.5848 27.668 26.1635L27.424 28.1485ZM36.914 38.226C36.914 42.1912 35.4784 44.8498 33.2393 46.5486C30.9569 48.2803 27.717 49.106 23.982 49.106V51.106C27.969 51.106 31.6951 50.2307 34.4482 48.1419C37.2446 46.0202 38.914 42.7388 38.914 38.226H36.914ZM23.982 49.106C18.5298 49.106 13.4763 46.8492 10.5083 42.3217L8.83569 43.4183C12.2397 48.6108 17.9862 51.106 23.982 51.106V49.106ZM10.5237 42.3459C10.3289 42.0295 9.98271 41.4024 9.68788 40.7679C9.54082 40.4514 9.4144 40.1497 9.32677 39.8948C9.28308 39.7676 9.25269 39.6626 9.23396 39.5804C9.21395 39.4925 9.214 39.4596 9.214 39.468H7.214C7.214 39.8327 7.32662 40.2284 7.43535 40.5448C7.5536 40.8889 7.71068 41.2589 7.87412 41.6106C8.20029 42.3126 8.58308 43.0085 8.82034 43.3941L10.5237 42.3459ZM9.214 39.468C9.214 39.2981 9.28813 39.1412 9.47989 38.9957C9.6874 38.8383 9.98521 38.74 10.266 38.74V36.74C9.57479 36.74 8.8466 36.9657 8.27111 37.4023C7.67987 37.8508 7.214 38.5579 7.214 39.468H9.214ZM10.266 38.74C10.6131 38.74 10.863 38.8609 11.0254 39.0465L12.5306 37.7295C11.937 37.0511 11.1069 36.74 10.266 36.74V38.74ZM11.0254 39.0465C11.0957 39.1268 11.1801 39.2761 11.284 39.5449C11.3337 39.6737 11.38 39.8077 11.433 39.9609C11.4835 40.1065 11.5415 40.2733 11.6055 40.4334L13.4625 39.6906C13.4185 39.5807 13.3752 39.4572 13.3228 39.3059C13.2729 39.162 13.2145 38.9923 13.1495 38.8241C13.0239 38.4989 12.8383 38.0812 12.5306 37.7295L11.0254 39.0465ZM11.6225 40.4733C13.8306 45.367 19.24 47.758 24.198 47.758V45.758C19.76 45.758 15.2334 43.613 13.4455 39.6507L11.6225 40.4733ZM24.198 47.758C27.0434 47.758 29.7464 47.2472 31.7605 45.802C33.8351 44.3133 35.026 41.9454 35.026 38.604H33.026C33.026 41.4186 32.0569 43.1277 30.5945 44.177C29.0716 45.2698 26.8606 45.758 24.198 45.758V47.758ZM35.026 38.604C35.026 35.9696 34.4755 33.8017 33.0934 32.2107C31.7075 30.6152 29.6333 29.7696 26.9602 29.4568L26.7278 31.4432C29.1307 31.7244 30.6475 32.4448 31.5836 33.5223C32.5235 34.6043 33.026 36.2164 33.026 38.604H35.026ZM26.9608 29.4568C25.9886 29.3425 25.0138 29.3152 24.0706 29.3016C23.1129 29.2878 22.202 29.288 21.2851 29.2356L21.171 31.2324C22.144 31.288 23.1231 31.2882 24.0419 31.3014C24.9752 31.3148 25.8634 31.3415 26.7272 31.4431L26.9608 29.4568ZM21.271 29.2349C18.7916 29.1283 15.8765 28.769 13.6108 27.7142C12.4893 27.192 11.5717 26.5197 10.9357 25.6653C10.3092 24.8238 9.916 23.7533 9.916 22.35H7.916C7.916 24.1597 8.43407 25.6542 9.33139 26.8596C10.2192 28.0522 11.438 28.9087 12.7667 29.5273C15.4015 30.754 18.6424 31.1237 21.185 31.2331L21.271 29.2349ZM9.916 22.35C9.916 20.7931 10.4351 19.2906 11.2422 17.8781L9.50576 16.8859C8.5849 18.4974 7.916 20.3429 7.916 22.35H9.916ZM11.2429 17.877C13.4323 14.0334 18.1454 12.172 22.686 12.172V10.172C17.7226 10.172 12.1757 12.1986 9.50508 16.887L11.2429 17.877Z" fill="#FD8B51" mask="url(#path-2-outside-1_178_14318)"/>
<mask id="path-4-outside-2_178_14318" maskUnits="userSpaceOnUse" x="40" y="10" width="33" height="42" fill="black">
<rect fill="white" x="40" y="10" width="33" height="42"/>
<path d="M45.508 48.54C45.508 47.784 45.562 47.028 45.562 46.272C45.562 43.41 45.346 40.548 45.13 37.686C44.698 31.206 44.266 24.618 43.51 18.138C43.456 17.49 43.348 16.842 43.24 16.194C42.43 16.086 41.674 15.492 41.674 14.574C41.674 13.872 42.16 13.386 42.754 13.062C43.834 12.468 55.12 11.604 57.064 11.604C59.386 11.604 61.654 11.874 63.868 12.63C68.512 14.25 71.266 16.842 71.266 22.026C71.266 24.78 69.808 27.426 67.756 29.208C64.948 31.638 58.9 34.122 55.282 35.04C53.932 35.364 52.474 35.526 51.124 35.796C50.422 35.904 49.72 36.066 48.964 36.174C49.234 39.9 49.45 43.572 49.45 47.298C49.45 48.864 49.234 50.16 47.344 50.16C46.426 50.16 45.508 49.512 45.508 48.54ZM56.848 14.952C53.662 14.952 50.476 15.33 47.29 15.762C47.29 16.248 47.344 16.734 47.398 17.166C47.938 22.35 48.37 27.534 48.748 32.718C50.53 32.448 52.852 32.124 53.77 31.962C56.794 31.314 63.22 28.722 65.38 26.562C66.514 25.374 67.324 23.808 67.324 22.134C67.324 18.408 65.38 16.734 62.032 15.708C60.358 15.222 58.63 14.952 56.848 14.952Z"/>
</mask>
<path d="M45.508 48.54C45.508 47.784 45.562 47.028 45.562 46.272C45.562 43.41 45.346 40.548 45.13 37.686C44.698 31.206 44.266 24.618 43.51 18.138C43.456 17.49 43.348 16.842 43.24 16.194C42.43 16.086 41.674 15.492 41.674 14.574C41.674 13.872 42.16 13.386 42.754 13.062C43.834 12.468 55.12 11.604 57.064 11.604C59.386 11.604 61.654 11.874 63.868 12.63C68.512 14.25 71.266 16.842 71.266 22.026C71.266 24.78 69.808 27.426 67.756 29.208C64.948 31.638 58.9 34.122 55.282 35.04C53.932 35.364 52.474 35.526 51.124 35.796C50.422 35.904 49.72 36.066 48.964 36.174C49.234 39.9 49.45 43.572 49.45 47.298C49.45 48.864 49.234 50.16 47.344 50.16C46.426 50.16 45.508 49.512 45.508 48.54ZM56.848 14.952C53.662 14.952 50.476 15.33 47.29 15.762C47.29 16.248 47.344 16.734 47.398 17.166C47.938 22.35 48.37 27.534 48.748 32.718C50.53 32.448 52.852 32.124 53.77 31.962C56.794 31.314 63.22 28.722 65.38 26.562C66.514 25.374 67.324 23.808 67.324 22.134C67.324 18.408 65.38 16.734 62.032 15.708C60.358 15.222 58.63 14.952 56.848 14.952Z" fill="#257180"/>
<path d="M45.13 37.686L44.1322 37.7525L44.1328 37.7613L45.13 37.686ZM43.51 18.138L42.5135 18.221L42.5148 18.2375L42.5167 18.2539L43.51 18.138ZM43.24 16.194L44.2264 16.0296L44.1049 15.3005L43.3722 15.2028L43.24 16.194ZM42.754 13.062L43.2329 13.9399L43.2359 13.9382L42.754 13.062ZM63.868 12.63L64.1974 11.6858L64.1911 11.6836L63.868 12.63ZM67.756 29.208L68.4104 29.9642L68.4117 29.963L67.756 29.208ZM55.282 35.04L55.5154 36.0125L55.5279 36.0093L55.282 35.04ZM51.124 35.796L51.2761 36.7844L51.2982 36.781L51.3201 36.7766L51.124 35.796ZM48.964 36.174L48.8226 35.184L47.8992 35.316L47.9666 36.2463L48.964 36.174ZM47.29 15.762L47.1556 14.7711L46.29 14.8884V15.762H47.29ZM47.398 17.166L48.3926 17.0624L48.3916 17.0522L48.3903 17.042L47.398 17.166ZM48.748 32.718L47.7506 32.7907L47.8292 33.8686L48.8978 33.7067L48.748 32.718ZM53.77 31.962L53.9438 32.9468L53.9617 32.9436L53.9795 32.9398L53.77 31.962ZM65.38 26.562L66.0871 27.2691L66.0953 27.2609L66.1034 27.2525L65.38 26.562ZM62.032 15.708L62.325 14.7519L62.3179 14.7497L62.3108 14.7477L62.032 15.708ZM46.508 48.54C46.508 48.1828 46.5208 47.8227 46.5344 47.4417C46.5478 47.0667 46.562 46.6708 46.562 46.272H44.562C44.562 46.6292 44.5492 46.9893 44.5356 47.3703C44.5222 47.7453 44.508 48.1412 44.508 48.54H46.508ZM46.562 46.272C46.562 43.366 46.3427 40.4664 46.1272 37.6107L44.1328 37.7613C44.3493 40.6296 44.562 43.454 44.562 46.272H46.562ZM46.1278 37.6195C45.6961 31.1448 45.2627 24.5312 44.5033 18.0221L42.5167 18.2539C43.2693 24.7048 43.6999 31.2672 44.1322 37.7525L46.1278 37.6195ZM44.5065 18.055C44.4486 17.3591 44.3332 16.6705 44.2264 16.0296L42.2536 16.3584C42.3628 17.0135 42.4634 17.6209 42.5135 18.221L44.5065 18.055ZM43.3722 15.2028C43.1555 15.1739 42.9657 15.0807 42.8433 14.964C42.7333 14.8591 42.674 14.736 42.674 14.574H40.674C40.674 16.1444 41.9672 17.0331 43.1078 17.1852L43.3722 15.2028ZM42.674 14.574C42.674 14.4735 42.703 14.3892 42.7783 14.2931C42.8643 14.1835 43.0119 14.0604 43.2329 13.9399L42.2751 12.1841C41.5541 12.5774 40.674 13.3282 40.674 14.574H42.674ZM43.2359 13.9382C43.1951 13.9607 43.2076 13.9472 43.3351 13.9123C43.4442 13.8825 43.5948 13.8482 43.7893 13.8106C44.1771 13.7355 44.692 13.656 45.3037 13.5749C46.5244 13.413 48.0817 13.2507 49.6753 13.1062C52.8804 12.8154 56.1441 12.604 57.064 12.604V10.604C56.0399 10.604 52.6886 10.8246 49.4947 11.1143C47.8888 11.26 46.3006 11.4251 45.0407 11.5923C44.412 11.6757 43.8529 11.7611 43.4092 11.847C43.1878 11.8899 42.9834 11.9351 42.8076 11.9832C42.6501 12.0262 42.4479 12.0891 42.2721 12.1858L43.2359 13.9382ZM57.064 12.604C59.3087 12.604 61.4619 12.8651 63.5449 13.5763L64.1911 11.6836C61.8461 10.8829 59.4633 10.604 57.064 10.604V12.604ZM63.5386 13.5742C65.7748 14.3542 67.4376 15.3296 68.5454 16.6377C69.6341 17.9234 70.266 19.6246 70.266 22.026H72.266C72.266 19.2434 71.5209 17.0566 70.0716 15.3452C68.6414 13.6564 66.6052 12.5258 64.1974 11.6858L63.5386 13.5742ZM70.266 22.026C70.266 24.4341 68.98 26.8206 67.1003 28.453L68.4117 29.963C70.636 28.0314 72.266 25.1259 72.266 22.026H70.266ZM67.1016 28.4518C65.8088 29.5706 63.7008 30.7516 61.4132 31.7787C59.1407 32.799 56.7793 33.6284 55.0361 34.0707L55.5279 36.0093C57.4027 35.5336 59.8743 34.662 62.2323 33.6033C64.5752 32.5514 66.8952 31.2754 68.4104 29.9642L67.1016 28.4518ZM55.0486 34.0676C54.4122 34.2204 53.7415 34.337 53.0417 34.4513C52.3532 34.5639 51.6254 34.6759 50.9279 34.8154L51.3201 36.7766C51.9726 36.6461 52.6488 36.5421 53.3643 36.4252C54.0685 36.31 54.8018 36.1836 55.5154 36.0124L55.0486 34.0676ZM50.9719 34.8076C50.6004 34.8648 50.2301 34.9361 49.8788 35.0023C49.5212 35.0698 49.1763 35.1335 48.8226 35.184L49.1054 37.1639C49.5078 37.1065 49.8918 37.0352 50.2497 36.9677C50.6139 36.8989 50.9456 36.8352 51.2761 36.7844L50.9719 34.8076ZM47.9666 36.2463C48.2361 39.9655 48.45 43.6088 48.45 47.298H50.45C50.45 43.5352 50.2319 39.8345 49.9614 36.1017L47.9666 36.2463ZM48.45 47.298C48.45 48.0935 48.3815 48.5621 48.2327 48.8287C48.176 48.9301 48.1114 48.9936 48.0159 49.0423C47.9078 49.0975 47.7063 49.16 47.344 49.16V51.16C47.9267 51.16 48.461 51.0605 48.925 50.8237C49.4015 50.5806 49.7452 50.2221 49.9788 49.8038C50.4105 49.0309 50.45 48.0685 50.45 47.298H48.45ZM47.344 49.16C47.1096 49.16 46.8771 49.074 46.7175 48.9426C46.5692 48.8205 46.508 48.685 46.508 48.54H44.508C44.508 50.2371 46.0641 51.16 47.344 51.16V49.16ZM56.848 13.952C53.5894 13.952 50.3459 14.3385 47.1556 14.7711L47.4244 16.7529C50.6061 16.3215 53.7346 15.952 56.848 15.952V13.952ZM46.29 15.762C46.29 16.3148 46.3512 16.8536 46.4057 17.29L48.3903 17.042C48.3368 16.6144 48.29 16.1812 48.29 15.762H46.29ZM46.4034 17.2696C46.942 22.4402 47.3731 27.6133 47.7506 32.7907L49.7454 32.6453C49.3669 27.4547 48.934 22.2598 48.3926 17.0624L46.4034 17.2696ZM48.8978 33.7067C50.6513 33.441 53.0109 33.1114 53.9438 32.9468L53.5962 30.9772C52.6931 31.1366 50.4087 31.455 48.5982 31.7293L48.8978 33.7067ZM53.9795 32.9398C55.5819 32.5964 58.013 31.7585 60.3041 30.7433C62.5636 29.742 64.864 28.4922 66.0871 27.2691L64.6729 25.8549C63.736 26.7918 61.7434 27.918 59.4939 28.9147C57.276 29.8975 54.9821 30.6796 53.5605 30.9842L53.9795 32.9398ZM66.1034 27.2525C67.3627 25.9332 68.324 24.132 68.324 22.134H66.324C66.324 23.484 65.6653 24.8148 64.6566 25.8715L66.1034 27.2525ZM68.324 22.134C68.324 20.0851 67.7834 18.4783 66.6793 17.2423C65.5992 16.0333 64.0753 15.2883 62.325 14.7519L61.739 16.6641C63.3367 17.1537 64.4588 17.7587 65.1877 18.5747C65.8926 19.3637 66.324 20.4569 66.324 22.134H68.324ZM62.3108 14.7477C60.5542 14.2377 58.7324 13.952 56.848 13.952V15.952C58.5276 15.952 60.1618 16.2063 61.7532 16.6683L62.3108 14.7477Z" fill="#257180" mask="url(#path-4-outside-2_178_14318)"/>
</svg>
